<?xml version="1.0" encoding="UTF-8" standalone="no"?><svg xmlns="http://www.w3.org/2000/svg" xmlns:xlink="http://www.w3.org/1999/xlink" contentScriptType="application/ecmascript" contentStyleType="text/css" height="209px" preserveAspectRatio="none" style="width:496px;height:209px;background:#FFFFFF;" version="1.1" viewBox="0 0 496 209" width="496px" zoomAndPan="magnify"><defs><filter height="300%" id="f1bi24rjwhre0f" width="300%" x="-1" y="-1"><feGaussianBlur result="blurOut" stdDeviation="2.0"/><feColorMatrix in="blurOut" result="blurOut2" type="matrix" values="0 0 0 0 0 0 0 0 0 0 0 0 0 0 0 0 0 0 .4 0"/><feOffset dx="4.0" dy="4.0" in="blurOut2" result="blurOut3"/><feBlend in="SourceGraphic" in2="blurOut3" mode="normal"/></filter></defs><g><!--MD5=[732ea8f6097c7aae8d92b3fdf6f66212]
entity Promoter--><ellipse cx="94" cy="14" fill="#FEFECE" filter="url(#f1bi24rjwhre0f)" rx="8" ry="8" style="stroke:#A80036;stroke-width:1.5;"/><path d="M94,22 L94,49 M81,30 L107,30 M94,49 L81,64 M94,49 L107,64 " fill="none" filter="url(#f1bi24rjwhre0f)" style="stroke:#A80036;stroke-width:1.5;"/><text fill="#000000" font-family="sans-serif" font-size="14" lengthAdjust="spacing" textLength="64" x="62" y="83.0352">Promoter</text><!--MD5=[8e2c1cdec7952a98479efb9c1bd676f1]
entity Entrant--><ellipse cx="400" cy="14" fill="#FEFECE" filter="url(#f1bi24rjwhre0f)" rx="8" ry="8" style="stroke:#A80036;stroke-width:1.5;"/><path d="M400,22 L400,49 M387,30 L413,30 M400,49 L387,64 M400,49 L413,64 " fill="none" filter="url(#f1bi24rjwhre0f)" style="stroke:#A80036;stroke-width:1.5;"/><text fill="#000000" font-family="sans-serif" font-size="14" lengthAdjust="spacing" textLength="50" x="375" y="83.0352">Entrant</text><ellipse cx="73.2483" cy="179.8497" fill="#FEFECE" filter="url(#f1bi24rjwhre0f)" rx="67.2483" ry="15.8497" style="stroke:#A80036;stroke-width:1.5;"/><text fill="#000000" font-family="sans-serif" font-size="14" lengthAdjust="spacing" textLength="86" x="27.2483" y="183.8672">Create Event</text><ellipse cx="250.1072" cy="44.9214" fill="#FEFECE" filter="url(#f1bi24rjwhre0f)" rx="67.6072" ry="15.9214" style="stroke:#A80036;stroke-width:1.5;"/><text fill="#000000" font-family="sans-serif" font-size="14" lengthAdjust="spacing" textLength="87" x="203.6072" y="48.939">Attend Event</text><ellipse cx="422.1108" cy="179.8222" fill="#FEFECE" filter="url(#f1bi24rjwhre0f)" rx="62.1108" ry="14.8222" style="stroke:#A80036;stroke-width:1.5;"/><text fill="#000000" font-family="sans-serif" font-size="14" lengthAdjust="spacing" textLength="71" x="383.6108" y="183.8397">Find Event</text><ellipse cx="250.0639" cy="179.8128" fill="#FEFECE" filter="url(#f1bi24rjwhre0f)" rx="74.5639" ry="17.3128" style="stroke:#A80036;stroke-width:1.5;"/><text fill="#000000" font-family="sans-serif" font-size="14" lengthAdjust="spacing" textLength="105" x="197.5639" y="183.1038">Create Member</text><!--MD5=[c4e28dd8de62bea5b72a33487706dd3d]
link Promoter to Create Event--><path d="M87.76,85.54 C83.95,109.62 79.26,139.37 76.2,158.75 " fill="none" id="Promoter-to-Create Event" style="stroke:#A80036;stroke-width:1.0;"/><polygon fill="#A80036" points="75.38,163.93,80.7433,155.6696,76.1649,158.992,72.8425,154.4136,75.38,163.93" style="stroke:#A80036;stroke-width:1.0;"/><!--MD5=[30f16823e912180c0e394a2e082da754]
link Promoter to Attend Event--><path d="M126.3,45 C143.23,45 160.16,45 177.09,45 " fill="none" id="Promoter-to-Attend Event" style="stroke:#A80036;stroke-width:1.0;"/><polygon fill="#A80036" points="182.35,45,173.35,41,177.35,45,173.35,49,182.35,45" style="stroke:#A80036;stroke-width:1.0;"/><!--MD5=[c4fffc06f3684541b525511740293899]
link Entrant to Find Event--><path d="M406.54,85.54 C410.59,110.04 415.62,140.41 418.82,159.75 " fill="none" id="Entrant-to-Find Event" style="stroke:#A80036;stroke-width:1.0;"/><polygon fill="#A80036" points="419.67,164.9,422.1494,155.3683,418.855,159.9669,414.2564,156.6724,419.67,164.9" style="stroke:#A80036;stroke-width:1.0;"/><!--MD5=[26b71c8b16c14b2d032a5ef3549e3355]
reverse link Attend Event to Entrant--><path d="M323.04,45 C340.33,45 357.63,45 374.92,45 " fill="none" id="Attend Event-backto-Entrant" style="stroke:#A80036;stroke-width:1.0;"/><polygon fill="#A80036" points="317.68,45,326.68,49,322.68,45,326.68,41,317.68,45" style="stroke:#A80036;stroke-width:1.0;"/><!--MD5=[9361455c39d3b1c01a492c586fff004d]
reverse link Attend Event to Create Member--><path d="M250,66.57 C250,92.88 250,137.94 250,162.26 " fill="none" id="Attend Event-backto-Create Member" style="stroke:#A80036;stroke-width:1.0;stroke-dasharray:7.0,7.0;"/><polygon fill="#A80036" points="250,61.26,246,70.26,250,66.26,254,70.26,250,61.26" style="stroke:#A80036;stroke-width:1.0;"/><text fill="#000000" font-family="sans-serif" font-size="13" lengthAdjust="spacing" textLength="60" x="251" y="129.0684">«include»</text><!--MD5=[bd4eafc107505fbd50bbf923499e11e3]
@startuml
actor Promoter
actor Entrant

Promoter - -> (Create Event)
Promoter -> (Attend Event)

Entrant - -> (Find Event)
(Attend Event) <- Entrant

(Attend Event) <.. (Create Member)  : <<include>>
@enduml

PlantUML version 1.2021.9(Sun Jul 25 19:13:56 JST 2021)
(GPL source distribution)
Java Runtime: OpenJDK Runtime Environment
JVM: OpenJDK 64-Bit Server VM
Default Encoding: UTF-8
Language: ja
Country: JP
--></g></svg>