<?xml version="1.0" encoding="UTF-8" standalone="no"?><svg xmlns="http://www.w3.org/2000/svg" xmlns:xlink="http://www.w3.org/1999/xlink" contentScriptType="application/ecmascript" contentStyleType="text/css" height="209px" preserveAspectRatio="none" style="width:577px;height:209px;background:#FFFFFF;" version="1.1" viewBox="0 0 577 209" width="577px" zoomAndPan="magnify"><defs><filter height="300%" id="f1j0b3viwnsrsg" width="300%" x="-1" y="-1"><feGaussianBlur result="blurOut" stdDeviation="2.0"/><feColorMatrix in="blurOut" result="blurOut2" type="matrix" values="0 0 0 0 0 0 0 0 0 0 0 0 0 0 0 0 0 0 .4 0"/><feOffset dx="4.0" dy="4.0" in="blurOut2" result="blurOut3"/><feBlend in="SourceGraphic" in2="blurOut3" mode="normal"/></filter></defs><g><!--MD5=[6be6168b6d2c053508892e3f05d497a7]
entity Builder--><ellipse cx="498" cy="14" fill="#FEFECE" filter="url(#f1j0b3viwnsrsg)" rx="8" ry="8" style="stroke:#A80036;stroke-width:1.5;"/><path d="M498,22 L498,49 M485,30 L511,30 M498,49 L485,64 M498,49 L511,64 " fill="none" filter="url(#f1j0b3viwnsrsg)" style="stroke:#A80036;stroke-width:1.5;"/><text fill="#000000" font-family="sans-serif" font-size="14" lengthAdjust="spacing" textLength="48" x="474" y="83.0352">Builder</text><ellipse cx="498.2483" cy="179.8497" fill="#FEFECE" filter="url(#f1j0b3viwnsrsg)" rx="67.2483" ry="15.8497" style="stroke:#A80036;stroke-width:1.5;"/><text fill="#000000" font-family="sans-serif" font-size="14" lengthAdjust="spacing" textLength="86" x="452.2483" y="183.8672">Create Event</text><!--MD5=[732ea8f6097c7aae8d92b3fdf6f66212]
entity Promoter--><ellipse cx="38" cy="14" fill="#FEFECE" filter="url(#f1j0b3viwnsrsg)" rx="8" ry="8" style="stroke:#A80036;stroke-width:1.5;"/><path d="M38,22 L38,49 M25,30 L51,30 M38,49 L25,64 M38,49 L51,64 " fill="none" filter="url(#f1j0b3viwnsrsg)" style="stroke:#A80036;stroke-width:1.5;"/><text fill="#000000" font-family="sans-serif" font-size="14" lengthAdjust="spacing" textLength="64" x="6" y="83.0352">Promoter</text><ellipse cx="173.1072" cy="44.9214" fill="#FEFECE" filter="url(#f1j0b3viwnsrsg)" rx="67.6072" ry="15.9214" style="stroke:#A80036;stroke-width:1.5;"/><text fill="#000000" font-family="sans-serif" font-size="14" lengthAdjust="spacing" textLength="87" x="126.6072" y="48.939">Attend Event</text><!--MD5=[8e2c1cdec7952a98479efb9c1bd676f1]
entity Entrant--><ellipse cx="312" cy="14" fill="#FEFECE" filter="url(#f1j0b3viwnsrsg)" rx="8" ry="8" style="stroke:#A80036;stroke-width:1.5;"/><path d="M312,22 L312,49 M299,30 L325,30 M312,49 L299,64 M312,49 L325,64 " fill="none" filter="url(#f1j0b3viwnsrsg)" style="stroke:#A80036;stroke-width:1.5;"/><text fill="#000000" font-family="sans-serif" font-size="14" lengthAdjust="spacing" textLength="50" x="287" y="83.0352">Entrant</text><ellipse cx="334.1108" cy="179.8222" fill="#FEFECE" filter="url(#f1j0b3viwnsrsg)" rx="62.1108" ry="14.8222" style="stroke:#A80036;stroke-width:1.5;"/><text fill="#000000" font-family="sans-serif" font-size="14" lengthAdjust="spacing" textLength="71" x="295.6108" y="183.8397">Find Event</text><ellipse cx="162.0639" cy="179.8128" fill="#FEFECE" filter="url(#f1j0b3viwnsrsg)" rx="74.5639" ry="17.3128" style="stroke:#A80036;stroke-width:1.5;"/><text fill="#000000" font-family="sans-serif" font-size="14" lengthAdjust="spacing" textLength="105" x="109.5639" y="183.1038">Create Member</text><!--MD5=[c8e253e6ecdaafd027c3a5040914f3a0]
link Builder to Create Event--><path d="M498,85.54 C498,109.62 498,139.37 498,158.75 " fill="none" id="Builder-to-Create Event" style="stroke:#A80036;stroke-width:1.0;"/><polygon fill="#A80036" points="498,163.93,502,154.93,498,158.93,494,154.93,498,163.93" style="stroke:#A80036;stroke-width:1.0;"/><!--MD5=[30f16823e912180c0e394a2e082da754]
link Promoter to Attend Event--><path d="M70.17,45 C80.09,45 90.01,45 99.93,45 " fill="none" id="Promoter-to-Attend Event" style="stroke:#A80036;stroke-width:1.0;"/><polygon fill="#A80036" points="105.11,45,96.11,41,100.11,45,96.11,49,105.11,45" style="stroke:#A80036;stroke-width:1.0;"/><!--MD5=[c4fffc06f3684541b525511740293899]
link Entrant to Find Event--><path d="M318.54,85.54 C322.59,110.04 327.62,140.41 330.82,159.75 " fill="none" id="Entrant-to-Find Event" style="stroke:#A80036;stroke-width:1.0;"/><polygon fill="#A80036" points="331.67,164.9,334.1494,155.3683,330.855,159.9669,326.2564,156.6724,331.67,164.9" style="stroke:#A80036;stroke-width:1.0;"/><!--MD5=[26b71c8b16c14b2d032a5ef3549e3355]
reverse link Attend Event to Entrant--><path d="M245.66,45 C259.41,45 273.15,45 286.9,45 " fill="none" id="Attend Event-backto-Entrant" style="stroke:#A80036;stroke-width:1.0;"/><polygon fill="#A80036" points="240.6,45,249.6,49,245.6,45,249.6,41,240.6,45" style="stroke:#A80036;stroke-width:1.0;"/><!--MD5=[9361455c39d3b1c01a492c586fff004d]
reverse link Attend Event to Create Member--><path d="M171.32,66.3 C169.15,92.54 165.41,137.76 163.39,162.18 " fill="none" id="Attend Event-backto-Create Member" style="stroke:#A80036;stroke-width:1.0;stroke-dasharray:7.0,7.0;"/><polygon fill="#A80036" points="171.76,61,167.0285,69.6379,171.346,65.9828,175.001,70.3003,171.76,61" style="stroke:#A80036;stroke-width:1.0;"/><text fill="#000000" font-family="sans-serif" font-size="13" lengthAdjust="spacing" textLength="60" x="169" y="129.0684">«include»</text><!--MD5=[17c0a69e302602deb21a696bf60aa771]
@startuml
actor Builder

Builder - -> (Create Event)
Promoter -> (Attend Event)

Entrant - -> (Find Event)
(Attend Event) <- Entrant

(Attend Event) <.. (Create Member)  : <<include>>

@enduml

PlantUML version 1.2021.9(Sun Jul 25 19:13:56 JST 2021)
(GPL source distribution)
Java Runtime: OpenJDK Runtime Environment
JVM: OpenJDK 64-Bit Server VM
Default Encoding: UTF-8
Language: ja
Country: JP
--></g></svg>