<?xml version="1.0" encoding="UTF-8" standalone="no"?><svg xmlns="http://www.w3.org/2000/svg" xmlns:xlink="http://www.w3.org/1999/xlink" contentScriptType="application/ecmascript" contentStyleType="text/css" height="109px" preserveAspectRatio="none" style="width:282px;height:109px;background:#FFFFFF;" version="1.1" viewBox="0 0 282 109" width="282px" zoomAndPan="magnify"><defs/><g><!--MD5=[d4ab42d3dbcf0014defd4e29ec91a2d5]
cluster Bunzz Console--><polygon fill="#FFFFFF" points="72.5,7,72.5,7.2102,82.7,6.5857,92.9,7.1933,103.1,7.3997,113.3,6.2866,123.5,6.9223,133.7,6.5735,143.9,6.6165,154.1,6.9318,164.3,6.3086,174.5,7.5536,184.7,6.3697,194.9,6.8022,205.1,7.4319,215.3,6.9142,225.5,7.0682,235.7,6.9681,245.9,7.1785,256.1,7.2391,266.3,7.5857,276.5,7,277.1711,7,277.1793,17.3333,276.7546,27.6667,276.9636,38,277.2022,48.3333,275.7788,58.6667,277.1785,69,276.2035,79.3333,277.0338,89.6667,276.5,100,276.5,99.505,266.3,99.9315,256.1,100.7416,245.9,99.9513,235.7,100.1053,225.5,100.3386,215.3,100.4162,205.1,99.9961,194.9,100.2872,184.7,99.4276,174.5,100.2844,164.3,100.5482,154.1,100.4445,143.9,100.613,133.7,99.5169,123.5,99.3478,113.3,99.3786,103.1,99.9411,92.9,99.8035,82.7,100.6814,72.5,100,72.3253,100,72.1569,89.6667,72.7283,79.3333,71.8332,69,71.9809,58.6667,73.149,48.3333,72.9357,38,73.2345,27.6667,72.1782,17.3333,72.5,7" style="stroke:#000000;stroke-width:1.5;"/><text fill="#000000" font-family="Comic Sans MS" font-size="14" font-weight="bold" lengthAdjust="spacing" textLength="94" x="127.5" y="24.4287">Bunzz Console</text><polygon fill="#F8F8F8" points="259.0192,67.5632,257.3004,70.8813,250.7404,73.406,243.2133,75.9212,236.9995,78.8426,225.2759,80.5083,214.5656,82.2982,201.9949,83.453,188.1447,84.0064,176.1164,84.5736,159.802,83.6813,149.3914,83.5821,135.9271,82.1786,122.972,80.2419,113.8945,78.5145,104.7738,76.0945,97.95,73.5237,92.3011,70.5713,89.0106,67.5481,87.1563,64.2998,88.0197,61.1881,91.1523,58.1923,97.2926,55.572,103.8668,52.8395,112.0867,50.3753,125.6175,49.1215,133.9167,46.7822,148.6257,46.1146,159.8475,44.9623,175.6659,45.2588,188.1455,45.2772,199.4137,45.5719,213.699,47.1624,224.856,48.6894,234.586,50.5654,243.1753,52.8643,251.1928,55.7071,255.691,58.3973,260.8146,61.8383,259.9081,64.4574" style="stroke:#383838;stroke-width:1.5;"/><text fill="#000000" font-family="Comic Sans MS" font-size="14" lengthAdjust="spacing" textLength="118" x="112.5303" y="69.5704">Generate modules</text><!--MD5=[6be6168b6d2c053508892e3f05d497a7]
entity Builder--><polygon fill="#F8F8F8" points="37.5442,34.9459,36.3715,36.5482,34.9845,38.8951,33.0008,40.4767,30.9163,41.3415,29.2542,41.4166,27.118,40.3349,25.1023,39.6283,23.5724,38.1936,22.7699,36.5511,22.2939,35.2433,21.8277,33.5351,21.0709,32.0651,21.6525,30.6298,22.162,29.0576,24.074,27.8142,25.4192,26.2008,27.0843,25.665,29.0637,25.2037,31.6021,25.4778,32.9924,26.1335,34.6089,26.4307,36.5743,28.4443,37.2595,30.5701,37.5571,32.0206,37.22,34.4108" style="stroke:#383838;stroke-width:1.5;"/><path d="M29.5,41 L29.6868,41 L29.1317,46.4 L29.6718,51.8 L29.8553,57.2 L28.8659,62.6 L29.5,68 M16.5,49 L16.5,48.9309 L21.7,48.6209 L26.9,48.6591 L32.1,48.9394 L37.3,48.3854 L42.5,49 M29.5,68 L29.8719,68.3223 L26.4766,70.6331 L24.1672,73.8849 L21.9901,77.2515 L19.0424,79.9501 L16.5,83 M29.5,68 L29.5458,68.0397 L32.0785,70.9814 L34.8199,74.1039 L37.4606,77.1392 L40.2934,80.341 L42.5,83 " fill="none" style="stroke:#383838;stroke-width:1.5;"/><text fill="#000000" font-family="Comic Sans MS" font-size="14" lengthAdjust="spacing" textLength="47" x="6" y="100.9287">Builder</text><!--MD5=[6854b086507cc13484b5a30e54e69b09]
link Builder to GM--><path d="M53.01,64.5 L53.01,64.5934 L58.99,64.3159 L64.97,64.5859 L70.95,64.6776 L76.93,64.1829 L82.91,64.5 " fill="none" style="stroke:#383838;stroke-width:1.0;"/><polygon fill="#383838" points="88.13,64.5,88.1585,64.564,86.2739,63.5738,84.5562,62.9589,82.7841,62.2217,80.8334,61.0827,79.13,60.5,79.1117,60.4817,79.8295,61.1995,80.6396,62.0096,81.5139,62.8839,82.167,63.537,83.13,64.5,83.2605,64.6305,82.1814,65.1514,81.4834,66.0534,80.8318,67.0018,79.9098,67.6798,79.13,68.5,79.1392,68.5208,80.9257,67.6903,82.7542,66.9544,84.5624,66.1728,86.4093,65.4784,88.13,64.5" style="stroke:#383838;stroke-width:1.0;"/><!--MD5=[8561e63fa92d13f56c32ba29f2b262df]
@startuml
skinparam DefaultFontName Comic Sans MS
skinparam componentStyle rectangle
skinparam handwritten true
skinparam monochrome true
skinparam shadowing false

actor Builder

component "Bunzz Console" {
  (Generate modules) as GM
}
Builder -> GM
@enduml

PlantUML version 1.2021.9(Sun Jul 25 19:13:56 JST 2021)
(GPL source distribution)
Java Runtime: OpenJDK Runtime Environment
JVM: OpenJDK 64-Bit Server VM
Default Encoding: UTF-8
Language: ja
Country: JP
--></g></svg>