<?xml version="1.0" encoding="UTF-8" standalone="no"?><svg xmlns="http://www.w3.org/2000/svg" xmlns:xlink="http://www.w3.org/1999/xlink" contentScriptType="application/ecmascript" contentStyleType="text/css" height="106px" preserveAspectRatio="none" style="width:277px;height:106px;background:#FFFFFF;" version="1.1" viewBox="0 0 277 106" width="277px" zoomAndPan="magnify"><defs/><g><!--MD5=[d4ab42d3dbcf0014defd4e29ec91a2d5]
cluster Bunzz Console--><polygon fill="#FFFFFF" points="73,7,73,7.2102,82.9,6.5857,92.8,7.1933,102.7,7.3997,112.6,6.2866,122.5,6.9223,132.4,6.5735,142.3,6.6165,152.2,6.9318,162.1,6.3086,172,7.5536,181.9,6.3697,191.8,6.8022,201.7,7.4319,211.6,6.9142,221.5,7.0682,231.4,6.9681,241.3,7.1785,251.2,7.2391,261.1,7.5857,271,7,271.6711,7,271.6793,16.8889,271.2546,26.7778,271.4636,36.6667,271.7022,46.5556,270.2788,56.4444,271.6785,66.3333,270.7035,76.2222,271.5338,86.1111,271,96,271,95.505,261.1,95.9315,251.2,96.7416,241.3,95.9513,231.4,96.1053,221.5,96.3386,211.6,96.4162,201.7,95.9961,191.8,96.2872,181.9,95.4276,172,96.2844,162.1,96.5482,152.2,96.4445,142.3,96.613,132.4,95.5169,122.5,95.3478,112.6,95.3786,102.7,95.9411,92.8,95.8035,82.9,96.6814,73,96,72.8253,96,72.6569,86.1111,73.2283,76.2222,72.3332,66.3333,72.4809,56.4444,73.649,46.5556,73.4357,36.6667,73.7345,26.7778,72.6782,16.8889,73,7" style="stroke:#000000;stroke-width:1.5;"/><text fill="#000000" font-family="InkFree" font-size="14" font-weight="bold" lengthAdjust="spacing" textLength="106" x="119" y="22.5352">Bunzz Console</text><polygon fill="#F8F8F8" points="253.4063,63.8534,251.7492,67.067,245.4243,69.5123,238.1671,71.9484,232.176,74.7779,220.8727,76.3912,210.5464,78.1247,198.4263,79.2433,185.0726,79.7792,173.4754,80.3286,157.746,79.4643,147.7085,79.3682,134.7269,78.0089,122.2362,76.1331,113.4841,74.4601,104.6904,72.1163,98.1113,69.6264,92.6648,66.7668,89.4923,63.8387,87.7045,60.6927,88.5369,57.6789,91.5572,54.7773,97.4774,52.2394,103.8159,49.5929,111.7411,47.2062,124.7868,45.9918,132.7886,43.7261,146.9703,43.0795,157.7898,41.9635,173.0412,42.2507,185.0734,42.2685,195.9376,42.5539,209.7108,44.0944,220.4679,45.5733,229.849,47.3903,238.1304,49.6169,245.8605,52.3703,250.1975,54.9758,255.1373,58.3085,254.2634,60.8452" style="stroke:#383838;stroke-width:1.5;"/><text fill="#000000" font-family="InkFree" font-size="14" lengthAdjust="spacing" textLength="125" x="109.4462" y="64.2803">Generate modules</text><!--MD5=[6be6168b6d2c053508892e3f05d497a7]
entity Builder--><polygon fill="#F8F8F8" points="38.0442,33.4459,36.8715,35.0482,35.4845,37.3951,33.5008,38.9767,31.4163,39.8415,29.7542,39.9166,27.618,38.8349,25.6023,38.1283,24.0724,36.6936,23.2699,35.0511,22.7939,33.7433,22.3277,32.0351,21.5709,30.5651,22.1525,29.1298,22.662,27.5576,24.574,26.3142,25.9192,24.7008,27.5843,24.165,29.5637,23.7037,32.1021,23.9778,33.4924,24.6335,35.1089,24.9307,37.0743,26.9443,37.7595,29.0701,38.0571,30.5206,37.72,32.9108" style="stroke:#383838;stroke-width:1.5;"/><path d="M30,39.5 L30.1868,39.5 L29.6317,44.9 L30.1718,50.3 L30.3553,55.7 L29.3659,61.1 L30,66.5 M17,47.5 L17,47.4309 L22.2,47.1209 L27.4,47.1591 L32.6,47.4394 L37.8,46.8854 L43,47.5 M30,66.5 L30.3719,66.8223 L26.9766,69.1331 L24.6672,72.3849 L22.4901,75.7515 L19.5424,78.4501 L17,81.5 M30,66.5 L30.0458,66.5397 L32.5785,69.4814 L35.3199,72.6039 L37.9606,75.6392 L40.7934,78.841 L43,81.5 " fill="none" style="stroke:#383838;stroke-width:1.5;"/><text fill="#000000" font-family="InkFree" font-size="14" lengthAdjust="spacing" textLength="48" x="6" y="97.5352">Builder</text><!--MD5=[6854b086507cc13484b5a30e54e69b09]
link Builder to GM--><path d="M54.13,61 L54.13,61.0934 L60.012,60.8159 L65.894,61.0859 L71.776,61.1776 L77.658,60.6829 L83.54,61 " fill="none" style="stroke:#383838;stroke-width:1.0;"/><polygon fill="#383838" points="88.66,61,88.6885,61.064,86.8039,60.0738,85.0862,59.4589,83.3141,58.7217,81.3634,57.5827,79.66,57,79.6417,56.9817,80.3595,57.6995,81.1696,58.5096,82.0439,59.3839,82.697,60.037,83.66,61,83.7905,61.1305,82.7114,61.6514,82.0134,62.5534,81.3618,63.5018,80.4398,64.1798,79.66,65,79.6692,65.0208,81.4557,64.1903,83.2842,63.4544,85.0924,62.6728,86.9393,61.9784,88.66,61" style="stroke:#383838;stroke-width:1.0;"/><!--MD5=[29596bae6c991c45f77201a5f7138eb2]
@startuml
skinparam DefaultFontName "InkFree"
skinparam componentStyle rectangle
skinparam handwritten true
skinparam monochrome true
skinparam shadowing false

actor Builder

component "Bunzz Console" {
  (Generate modules) as GM
}
Builder -> GM
@enduml

PlantUML version 1.2021.9(Sun Jul 25 19:13:56 JST 2021)
(GPL source distribution)
Java Runtime: OpenJDK Runtime Environment
JVM: OpenJDK 64-Bit Server VM
Default Encoding: UTF-8
Language: ja
Country: JP
--></g></svg>